<svg xmlns="http://www.w3.org/2000/svg" xmlns:xlink="http://www.w3.org/1999/xlink" width="500" zoomAndPan="magnify" viewBox="0 0 375 374.999991" height="500" preserveAspectRatio="xMidYMid meet" version="1.0"><defs><filter x="0%" y="0%" width="100%" height="100%" id="3ae5ca31e3"><feColorMatrix values="0 0 0 0 1 0 0 0 0 1 0 0 0 0 1 0 0 0 1 0" color-interpolation-filters="sRGB"/></filter><g/><mask id="78099ec7fe"><g filter="url(#3ae5ca31e3)"><rect x="-37.5" width="450" fill="#000000" y="-37.499999" height="449.999989" fill-opacity="0.4784"/></g></mask><clipPath id="990ae68a85"><rect x="0" width="177" y="0" height="207"/></clipPath></defs><g mask="url(#78099ec7fe)"><g transform="matrix(1, 0, 0, 1, 99, 84)"><g clip-path="url(#990ae68a85)"><g fill="#ffffff" fill-opacity="1"><g transform="translate(0.804343, 155.333964)"><g><path d="M 3.296875 0 L 3.296875 -1.5 L 6.3125 -2.546875 C 8.3125 -3.148438 9.632812 -4.050781 10.28125 -5.25 C 10.9375 -6.457031 11.265625 -8.0625 11.265625 -10.0625 L 11.265625 -88.75 C 11.265625 -90.75 10.910156 -92.347656 10.203125 -93.546875 C 9.503906 -94.753906 8.15625 -95.707031 6.15625 -96.40625 L 3.296875 -97.609375 L 3.296875 -99.109375 L 39.796875 -99.109375 C 54.710938 -99.109375 65.5 -96.378906 72.15625 -90.921875 C 78.8125 -85.472656 82.140625 -78.289062 82.140625 -69.375 C 82.140625 -63.664062 80.765625 -58.429688 78.015625 -53.671875 C 75.265625 -48.921875 70.734375 -45.144531 64.421875 -42.34375 C 58.117188 -39.539062 49.609375 -38.140625 38.890625 -38.140625 L 33.78125 -38.140625 L 33.78125 -10.515625 C 33.78125 -6.609375 35.734375 -4.054688 39.640625 -2.859375 L 44.15625 -1.5 L 44.15625 0 Z M 33.78125 -41.140625 L 39.5 -41.140625 C 44.40625 -41.140625 48.410156 -41.941406 51.515625 -43.546875 C 54.617188 -45.148438 56.921875 -47.953125 58.421875 -51.953125 C 59.921875 -55.960938 60.671875 -61.519531 60.671875 -68.625 C 60.671875 -75.832031 59.84375 -81.4375 58.1875 -85.4375 C 56.539062 -89.445312 54.113281 -92.226562 50.90625 -93.78125 C 47.707031 -95.332031 43.703125 -96.109375 38.890625 -96.109375 L 33.78125 -96.109375 Z M 33.78125 -41.140625 "/></g></g></g><g fill="#ffffff" fill-opacity="1"><g transform="translate(85.647, 155.333964)"><g><path d="M 54.96875 2.703125 C 45.25 2.703125 36.457031 0.726562 28.59375 -3.21875 C 20.738281 -7.175781 14.507812 -13.0625 9.90625 -20.875 C 5.300781 -28.6875 3 -38.25 3 -49.5625 C 3 -58.164062 4.398438 -65.722656 7.203125 -72.234375 C 10.003906 -78.742188 13.832031 -84.195312 18.6875 -88.59375 C 23.550781 -93 29.160156 -96.300781 35.515625 -98.5 C 41.867188 -100.707031 48.601562 -101.8125 55.71875 -101.8125 C 61.425781 -101.8125 66.679688 -101.160156 71.484375 -99.859375 C 76.285156 -98.554688 80.789062 -96.753906 85 -94.453125 L 85.59375 -75.984375 L 84.09375 -75.984375 L 76.59375 -88 C 75.582031 -89.90625 74.476562 -91.632812 73.28125 -93.1875 C 72.082031 -94.738281 70.582031 -95.910156 68.78125 -96.703125 C 67.28125 -97.410156 65.800781 -97.9375 64.34375 -98.28125 C 62.894531 -98.632812 61.070312 -98.8125 58.875 -98.8125 C 53.0625 -98.8125 47.773438 -97.257812 43.015625 -94.15625 C 38.265625 -91.050781 34.460938 -85.921875 31.609375 -78.765625 C 28.753906 -71.609375 27.328125 -61.820312 27.328125 -49.40625 C 27.328125 -37.09375 28.675781 -27.351562 31.375 -20.1875 C 34.082031 -13.03125 37.765625 -7.925781 42.421875 -4.875 C 47.078125 -1.820312 52.304688 -0.296875 58.109375 -0.296875 C 61.316406 -0.296875 63.867188 -0.519531 65.765625 -0.96875 C 67.671875 -1.425781 69.578125 -2.101562 71.484375 -3 C 73.378906 -3.800781 74.828125 -4.976562 75.828125 -6.53125 C 76.835938 -8.082031 77.742188 -9.757812 78.546875 -11.5625 L 85.140625 -26.28125 L 86.65625 -26.28125 L 86.203125 -4.8125 C 81.992188 -2.601562 77.285156 -0.800781 72.078125 0.59375 C 66.878906 2 61.175781 2.703125 54.96875 2.703125 Z M 54.96875 2.703125 "/></g></g></g></g></g></g><g fill="#ffffff" fill-opacity="1"><g transform="translate(30.467176, 206.533962)"><g><path d="M 77 -19.953125 C 77.257812 -19.898438 77.460938 -19.796875 77.609375 -19.640625 C 77.753906 -19.484375 77.785156 -19.332031 77.703125 -19.1875 C 77.609375 -19.039062 77.503906 -18.953125 77.390625 -18.921875 C 77.273438 -18.890625 77.144531 -18.882812 77 -18.90625 C 76.832031 -18.90625 76.660156 -18.914062 76.484375 -18.9375 C 73.972656 -19.007812 70.644531 -18.863281 66.5 -18.5 C 62.351562 -18.144531 59.015625 -17.789062 56.484375 -17.4375 C 54.523438 -17.1875 52.570312 -16.910156 50.625 -16.609375 C 50.582031 -16.609375 50.523438 -16.59375 50.453125 -16.5625 C 49.628906 -16.445312 48.882812 -16.148438 48.21875 -15.671875 C 45.726562 -13.972656 43.160156 -12.4375 40.515625 -11.0625 C 37.867188 -9.695312 35.164062 -8.421875 32.40625 -7.234375 C 27.9375 -5.265625 23.367188 -3.546875 18.703125 -2.078125 C 17.753906 -1.816406 17.054688 -1.234375 16.609375 -0.328125 C 14.546875 3.796875 12.390625 7.832031 10.140625 11.78125 C 8.140625 15.300781 6.222656 18.859375 4.390625 22.453125 C 4.390625 22.472656 4.378906 22.492188 4.359375 22.515625 C 4.285156 22.710938 4.191406 22.867188 4.078125 22.984375 C 3.878906 23.140625 3.65625 23.195312 3.40625 23.15625 C 3.269531 23.195312 3.132812 23.195312 3 23.15625 C 2.707031 23.039062 2.5625 22.828125 2.5625 22.515625 C 2.59375 22.015625 2.757812 21.539062 3.0625 21.09375 C 3.082031 21.070312 3.09375 21.046875 3.09375 21.015625 C 4.945312 17.679688 6.773438 14.34375 8.578125 11 C 10.378906 7.664062 12.117188 4.285156 13.796875 0.859375 C 13.929688 0.566406 14.066406 0.273438 14.203125 -0.015625 C 14.253906 -0.160156 14.3125 -0.3125 14.375 -0.46875 C 14.21875 -0.507812 14.070312 -0.550781 13.9375 -0.59375 C 13.675781 -0.53125 13.414062 -0.453125 13.15625 -0.359375 C 13.0625 -0.335938 12.972656 -0.304688 12.890625 -0.265625 C 9.640625 0.660156 6.351562 1.453125 3.03125 2.109375 C 0.726562 2.515625 -1.582031 2.804688 -3.90625 2.984375 C -4.03125 3.003906 -4.140625 3.015625 -4.234375 3.015625 C -4.460938 3.035156 -4.691406 3.046875 -4.921875 3.046875 C -5.816406 3.046875 -6.691406 2.90625 -7.546875 2.625 C -8.179688 2.394531 -8.5625 2.03125 -8.6875 1.53125 C -8.820312 1.03125 -8.671875 0.488281 -8.234375 -0.09375 C -7.648438 -0.769531 -6.960938 -1.328125 -6.171875 -1.765625 C -4.378906 -2.878906 -2.492188 -3.796875 -0.515625 -4.515625 C 4.742188 -6.503906 10.082031 -8.253906 15.5 -9.765625 C 15.800781 -9.867188 16.113281 -9.957031 16.4375 -10.03125 C 17.132812 -10.164062 17.785156 -10.367188 18.390625 -10.640625 C 18.992188 -10.910156 19.445312 -11.375 19.75 -12.03125 C 20.894531 -14.664062 21.992188 -17.300781 23.046875 -19.9375 C 24.097656 -22.570312 25.078125 -25.25 25.984375 -27.96875 C 25.984375 -27.988281 25.992188 -28.019531 26.015625 -28.0625 C 26.160156 -28.5625 26.347656 -29.023438 26.578125 -29.453125 C 26.671875 -29.609375 26.789062 -29.710938 26.9375 -29.765625 C 27.09375 -29.828125 27.253906 -29.84375 27.421875 -29.8125 C 27.535156 -29.84375 27.660156 -29.84375 27.796875 -29.8125 C 28.140625 -29.726562 28.34375 -29.492188 28.40625 -29.109375 C 28.40625 -28.390625 28.269531 -27.691406 28 -27.015625 C 28 -26.992188 27.988281 -26.960938 27.96875 -26.921875 C 26.832031 -23.441406 25.554688 -20.015625 24.140625 -16.640625 C 23.765625 -15.710938 23.382812 -14.796875 23 -13.890625 C 22.851562 -13.566406 22.707031 -13.226562 22.5625 -12.875 C 22.382812 -12.46875 22.3125 -12.1875 22.34375 -12.03125 C 22.375 -11.875 22.484375 -11.800781 22.671875 -11.8125 C 22.859375 -11.820312 23.082031 -11.875 23.34375 -11.96875 C 23.425781 -11.988281 23.515625 -12.007812 23.609375 -12.03125 C 24.640625 -12.300781 25.664062 -12.5625 26.6875 -12.8125 C 28.539062 -13.28125 30.410156 -13.742188 32.296875 -14.203125 C 36.898438 -15.296875 41.535156 -16.226562 46.203125 -17 C 47.035156 -17.132812 47.765625 -17.457031 48.390625 -17.96875 C 49.710938 -18.96875 51.023438 -20.144531 52.328125 -21.5 C 53.628906 -22.851562 54.703125 -24.3125 55.546875 -25.875 C 56.398438 -27.445312 56.785156 -29.0625 56.703125 -30.71875 C 56.617188 -32.375 55.859375 -34.015625 54.421875 -35.640625 C 53.492188 -36.609375 52.4375 -37.421875 51.25 -38.078125 C 48.757812 -39.421875 45.765625 -40.40625 42.265625 -41.03125 C 38.773438 -41.65625 35.03125 -41.984375 31.03125 -42.015625 C 27.039062 -42.054688 23.039062 -41.851562 19.03125 -41.40625 C 15.019531 -40.96875 11.265625 -40.351562 7.765625 -39.5625 C 4.273438 -38.78125 1.28125 -37.890625 -1.21875 -36.890625 C -3.382812 -36.035156 -5.441406 -34.976562 -7.390625 -33.71875 C -8.179688 -33.226562 -8.925781 -32.691406 -9.625 -32.109375 C -10.320312 -31.535156 -10.945312 -30.875 -11.5 -30.125 C -11.707031 -29.800781 -11.988281 -29.628906 -12.34375 -29.609375 C -12.414062 -29.609375 -12.5 -29.609375 -12.59375 -29.609375 C -12.613281 -29.609375 -12.632812 -29.609375 -12.65625 -29.609375 C -12.789062 -29.609375 -12.921875 -29.625 -13.046875 -29.65625 C -13.171875 -29.695312 -13.273438 -29.773438 -13.359375 -29.890625 C -13.398438 -29.984375 -13.421875 -30.078125 -13.421875 -30.171875 C -13.421875 -30.273438 -13.410156 -30.363281 -13.390625 -30.4375 C -13.203125 -30.863281 -12.957031 -31.238281 -12.65625 -31.5625 C -12.351562 -31.882812 -12.039062 -32.195312 -11.71875 -32.5 C -10.875 -33.21875 -9.992188 -33.863281 -9.078125 -34.4375 C -8.171875 -35.019531 -7.234375 -35.566406 -6.265625 -36.078125 C -3.804688 -37.390625 -0.660156 -38.566406 3.171875 -39.609375 C 7.003906 -40.660156 11.210938 -41.503906 15.796875 -42.140625 C 20.390625 -42.773438 25.015625 -43.117188 29.671875 -43.171875 C 34.328125 -43.234375 38.6875 -42.925781 42.75 -42.25 C 46.8125 -41.582031 50.273438 -40.457031 53.140625 -38.875 C 54.421875 -38.175781 55.566406 -37.28125 56.578125 -36.1875 C 58.003906 -34.582031 58.8125 -32.992188 59 -31.421875 C 59.195312 -29.859375 58.984375 -28.335938 58.359375 -26.859375 C 57.734375 -25.390625 56.867188 -23.988281 55.765625 -22.65625 C 54.660156 -21.320312 53.523438 -20.070312 52.359375 -18.90625 C 52.222656 -18.789062 52.085938 -18.644531 51.953125 -18.46875 C 51.816406 -18.300781 51.757812 -18.15625 51.78125 -18.03125 C 51.800781 -17.914062 51.972656 -17.878906 52.296875 -17.921875 C 56.191406 -18.554688 60.078125 -19.035156 63.953125 -19.359375 C 67.835938 -19.679688 71.742188 -19.898438 75.671875 -20.015625 C 75.785156 -20.015625 75.894531 -20.015625 76 -20.015625 L 76.03125 -20.015625 C 76.351562 -20.015625 76.675781 -19.992188 77 -19.953125 Z M 15.6875 -3.0625 C 15.769531 -3.269531 15.925781 -3.566406 16.15625 -3.953125 C 16.476562 -4.578125 16.816406 -5.265625 17.171875 -6.015625 C 17.535156 -6.773438 17.800781 -7.441406 17.96875 -8.015625 C 18.132812 -8.585938 18.050781 -8.898438 17.71875 -8.953125 C 17.519531 -8.921875 17.328125 -8.875 17.140625 -8.8125 C 17.097656 -8.8125 17.039062 -8.800781 16.96875 -8.78125 C 16.226562 -8.539062 15.484375 -8.316406 14.734375 -8.109375 C 12.941406 -7.585938 11.148438 -7.039062 9.359375 -6.46875 C 9.273438 -6.445312 9.1875 -6.410156 9.09375 -6.359375 C 5.882812 -5.378906 2.722656 -4.253906 -0.390625 -2.984375 C -1.960938 -2.335938 -3.457031 -1.550781 -4.875 -0.625 C -5.414062 -0.3125 -5.859375 0.0976562 -6.203125 0.609375 C -6.347656 0.816406 -6.390625 1.003906 -6.328125 1.171875 C -6.265625 1.347656 -6.117188 1.484375 -5.890625 1.578125 C -5.398438 1.742188 -4.90625 1.828125 -4.40625 1.828125 C -3.957031 1.828125 -3.515625 1.804688 -3.078125 1.765625 C -3.054688 1.765625 -3.046875 1.765625 -3.046875 1.765625 C -0.742188 1.523438 1.519531 1.148438 3.75 0.640625 C 7.289062 -0.140625 10.785156 -1.054688 14.234375 -2.109375 C 14.285156 -2.140625 14.320312 -2.15625 14.34375 -2.15625 C 14.625 -2.21875 14.878906 -2.3125 15.109375 -2.4375 C 15.335938 -2.5625 15.53125 -2.769531 15.6875 -3.0625 Z M 18.640625 -3.671875 C 20.734375 -4.210938 23.578125 -5.21875 27.171875 -6.6875 C 30.773438 -8.164062 34.238281 -9.722656 37.5625 -11.359375 C 40.882812 -13.003906 43.144531 -14.359375 44.34375 -15.421875 C 44.1875 -15.421875 44.050781 -15.421875 43.9375 -15.421875 C 43.882812 -15.421875 43.847656 -15.421875 43.828125 -15.421875 C 36.523438 -13.972656 29.300781 -12.253906 22.15625 -10.265625 C 21.519531 -10.085938 21.085938 -9.707031 20.859375 -9.125 C 20.421875 -8.195312 19.992188 -7.273438 19.578125 -6.359375 C 19.242188 -5.691406 18.914062 -5.007812 18.59375 -4.3125 C 18.550781 -4.21875 18.523438 -4.109375 18.515625 -3.984375 C 18.503906 -3.867188 18.546875 -3.765625 18.640625 -3.671875 Z M 18.640625 -3.671875 "/></g></g></g><g fill="#ffffff" fill-opacity="1"><g transform="translate(79.728025, 206.533962)"><g><path d="M 11.484375 -8.0625 C 11.734375 -7.925781 11.753906 -7.582031 11.546875 -7.03125 C 11.242188 -6.632812 10.914062 -6.257812 10.5625 -5.90625 C 10.21875 -5.5625 9.835938 -5.25 9.421875 -4.96875 C 9.390625 -4.96875 9.375 -4.957031 9.375 -4.9375 C 9.101562 -4.75 8.8125 -4.585938 8.5 -4.453125 C 5.976562 -3.546875 4.691406 -4.078125 4.640625 -6.046875 C 3.617188 -5.160156 2.929688 -4.617188 2.578125 -4.421875 C 1.742188 -3.921875 0.84375 -3.695312 -0.125 -3.75 C -0.84375 -3.789062 -1.332031 -4.007812 -1.59375 -4.40625 C -1.851562 -4.800781 -1.828125 -5.335938 -1.515625 -6.015625 C -1.054688 -7.085938 -0.398438 -8.039062 0.453125 -8.875 C 1.460938 -9.800781 2.578125 -10.546875 3.796875 -11.109375 C 4.453125 -11.429688 5.140625 -11.554688 5.859375 -11.484375 C 6.578125 -11.441406 7.007812 -11.035156 7.15625 -10.265625 C 7.21875 -10.035156 7.160156 -9.828125 6.984375 -9.640625 C 6.753906 -9.429688 6.484375 -9.382812 6.171875 -9.5 C 6.148438 -9.5 6.117188 -9.503906 6.078125 -9.515625 C 6.046875 -9.523438 6.019531 -9.539062 6 -9.5625 C 5.695312 -9.988281 5.390625 -10.164062 5.078125 -10.09375 C 4.765625 -10.03125 4.4375 -9.890625 4.09375 -9.671875 C 2.457031 -8.722656 1.242188 -7.398438 0.453125 -5.703125 C 0.410156 -5.628906 0.382812 -5.546875 0.375 -5.453125 C 0.363281 -5.367188 0.390625 -5.300781 0.453125 -5.25 C 0.648438 -5.175781 0.863281 -5.1875 1.09375 -5.28125 C 1.320312 -5.375 1.550781 -5.503906 1.78125 -5.671875 C 2.019531 -5.847656 2.21875 -5.992188 2.375 -6.109375 C 2.394531 -6.140625 2.40625 -6.15625 2.40625 -6.15625 C 3.175781 -6.800781 3.929688 -7.460938 4.671875 -8.140625 C 4.992188 -8.484375 5.398438 -8.679688 5.890625 -8.734375 C 6.585938 -8.734375 6.878906 -8.421875 6.765625 -7.796875 C 6.703125 -7.554688 6.632812 -7.320312 6.5625 -7.09375 C 6.28125 -6.09375 6.265625 -5.503906 6.515625 -5.328125 C 6.773438 -5.148438 7.164062 -5.148438 7.6875 -5.328125 C 8.207031 -5.503906 8.726562 -5.835938 9.25 -6.328125 C 9.78125 -6.816406 10.222656 -7.265625 10.578125 -7.671875 C 10.941406 -8.078125 11.242188 -8.207031 11.484375 -8.0625 Z M 11.484375 -8.0625 "/></g></g></g><g fill="#ffffff" fill-opacity="1"><g transform="translate(95.090642, 206.533962)"><g><path d="M 14.0625 -8.328125 C 14.28125 -8.273438 14.394531 -8.195312 14.40625 -8.09375 C 14.414062 -7.988281 14.421875 -7.9375 14.421875 -7.9375 C 14.171875 -7.488281 13.882812 -7.082031 13.5625 -6.71875 C 12.8125 -5.882812 11.9375 -5.21875 10.9375 -4.71875 C 10.457031 -4.445312 9.910156 -4.300781 9.296875 -4.28125 C 7.878906 -4.257812 7.226562 -4.941406 7.34375 -6.328125 C 7.394531 -6.628906 7.46875 -6.921875 7.5625 -7.203125 C 7.613281 -7.335938 7.648438 -7.476562 7.671875 -7.625 C 7.804688 -8.125 7.84375 -8.398438 7.78125 -8.453125 C 7.726562 -8.515625 7.5625 -8.375 7.28125 -8.03125 C 7.207031 -7.96875 7.140625 -7.898438 7.078125 -7.828125 C 6.660156 -7.316406 6.226562 -6.816406 5.78125 -6.328125 C 4.96875 -5.398438 4.039062 -4.617188 3 -3.984375 C 2.375 -3.617188 1.710938 -3.425781 1.015625 -3.40625 C -0.128906 -3.351562 -0.769531 -3.875 -0.90625 -4.96875 C -0.957031 -5.414062 -0.9375 -5.851562 -0.84375 -6.28125 C -0.375 -8.082031 0.550781 -9.453125 1.9375 -10.390625 C 3.332031 -11.328125 4.929688 -11.660156 6.734375 -11.390625 C 7.234375 -11.242188 7.601562 -11.378906 7.84375 -11.796875 C 7.9375 -11.953125 8.03125 -12.117188 8.125 -12.296875 C 8.613281 -13.128906 9.085938 -13.960938 9.546875 -14.796875 C 10.421875 -16.398438 11.304688 -18.015625 12.203125 -19.640625 C 12.910156 -20.921875 13.625 -22.207031 14.34375 -23.5 C 14.5625 -23.90625 14.796875 -24.289062 15.046875 -24.65625 C 15.160156 -24.84375 15.304688 -24.953125 15.484375 -24.984375 C 15.660156 -25.023438 15.84375 -25.046875 16.03125 -25.046875 C 16.070312 -25.046875 16.117188 -25.046875 16.171875 -25.046875 C 16.378906 -25.046875 16.546875 -24.988281 16.671875 -24.875 C 16.804688 -24.769531 16.832031 -24.628906 16.75 -24.453125 C 16.613281 -24.015625 16.453125 -23.59375 16.265625 -23.1875 C 15.296875 -21.25 14.378906 -19.28125 13.515625 -17.28125 C 12.660156 -15.289062 11.8125 -13.289062 10.96875 -11.28125 C 10.695312 -10.582031 10.421875 -9.882812 10.140625 -9.1875 C 9.785156 -8.375 9.492188 -7.539062 9.265625 -6.6875 C 9.203125 -6.5 9.171875 -6.3125 9.171875 -6.125 C 9.171875 -5.9375 9.257812 -5.773438 9.4375 -5.640625 C 9.550781 -5.566406 9.671875 -5.550781 9.796875 -5.59375 C 9.929688 -5.644531 10.070312 -5.703125 10.21875 -5.765625 C 10.238281 -5.796875 10.269531 -5.820312 10.3125 -5.84375 C 11.3125 -6.425781 12.226562 -7.125 13.0625 -7.9375 C 13.195312 -8.070312 13.34375 -8.1875 13.5 -8.28125 C 13.65625 -8.375 13.84375 -8.390625 14.0625 -8.328125 Z M 6.234375 -9.359375 C 6.359375 -9.546875 6.394531 -9.726562 6.34375 -9.90625 C 6.289062 -10.082031 6.171875 -10.210938 5.984375 -10.296875 C 5.597656 -10.503906 5.179688 -10.53125 4.734375 -10.375 C 3.648438 -10.050781 2.738281 -9.425781 2 -8.5 C 1.269531 -7.582031 0.875 -6.570312 0.8125 -5.46875 C 0.832031 -5.414062 0.84375 -5.378906 0.84375 -5.359375 C 0.84375 -5.253906 0.84375 -5.15625 0.84375 -5.0625 C 0.9375 -4.5625 1.25 -4.46875 1.78125 -4.78125 C 2.3125 -5.09375 2.90625 -5.59375 3.5625 -6.28125 C 4.226562 -6.976562 4.820312 -7.640625 5.34375 -8.265625 C 5.863281 -8.898438 6.160156 -9.265625 6.234375 -9.359375 Z M 6.234375 -9.359375 "/></g></g></g><g fill="#ffffff" fill-opacity="1"><g transform="translate(113.192345, 206.533962)"><g><path d="M 16.546875 -7.9375 C 16.921875 -8.164062 17.210938 -8.222656 17.421875 -8.109375 C 17.628906 -7.992188 17.550781 -7.664062 17.1875 -7.125 C 16.71875 -6.5 15.882812 -5.832031 14.6875 -5.125 C 13.488281 -4.425781 12.429688 -4.117188 11.515625 -4.203125 C 10.597656 -4.296875 10.332031 -4.972656 10.71875 -6.234375 C 11.101562 -7.503906 11.3125 -8.210938 11.34375 -8.359375 C 11.375 -8.515625 11.34375 -8.601562 11.25 -8.625 C 11.164062 -8.644531 10.957031 -8.539062 10.625 -8.3125 C 9.675781 -7.65625 8.75 -6.96875 7.84375 -6.25 C 7.445312 -5.957031 7.0625 -5.648438 6.6875 -5.328125 C 6.445312 -5.109375 6.203125 -4.894531 5.953125 -4.6875 C 5.953125 -4.6875 5.941406 -4.675781 5.921875 -4.65625 C 5.648438 -4.382812 5.3125 -4.203125 4.90625 -4.109375 C 4.726562 -4.046875 4.535156 -4.023438 4.328125 -4.046875 C 4.128906 -4.066406 3.960938 -4.144531 3.828125 -4.28125 C 3.671875 -4.4375 3.613281 -4.597656 3.65625 -4.765625 C 3.695312 -4.941406 3.828125 -5.203125 4.046875 -5.546875 C 4.273438 -5.898438 4.519531 -6.285156 4.78125 -6.703125 C 5.050781 -7.117188 5.203125 -7.375 5.234375 -7.46875 C 5.273438 -7.570312 5.257812 -7.671875 5.1875 -7.765625 C 5.113281 -7.859375 5.03125 -7.882812 4.9375 -7.84375 C 4.851562 -7.8125 4.519531 -7.585938 3.9375 -7.171875 C 3.363281 -6.753906 2.570312 -6.171875 1.5625 -5.421875 C 1.101562 -5.066406 0.648438 -4.707031 0.203125 -4.34375 C 0.0859375 -4.226562 -0.0351562 -4.117188 -0.171875 -4.015625 C -0.503906 -3.742188 -0.863281 -3.597656 -1.25 -3.578125 C -1.53125 -3.554688 -1.738281 -3.617188 -1.875 -3.765625 C -2.019531 -3.910156 -2.046875 -4.113281 -1.953125 -4.375 C -1.890625 -4.5625 -1.804688 -4.734375 -1.703125 -4.890625 C -1.648438 -4.960938 -1.613281 -5.035156 -1.59375 -5.109375 C -0.757812 -6.804688 0.0625 -8.503906 0.875 -10.203125 C 0.894531 -10.242188 0.914062 -10.300781 0.9375 -10.375 C 1.03125 -10.550781 1.125 -10.722656 1.21875 -10.890625 C 1.46875 -11.171875 1.769531 -11.265625 2.125 -11.171875 C 2.519531 -11.046875 2.671875 -10.8125 2.578125 -10.46875 C 2.390625 -9.9375 2.207031 -9.414062 2.03125 -8.90625 C 1.9375 -8.664062 1.84375 -8.429688 1.75 -8.203125 C 1.582031 -7.796875 1.523438 -7.53125 1.578125 -7.40625 C 1.640625 -7.289062 1.90625 -7.375 2.375 -7.65625 C 2.6875 -7.863281 3 -8.070312 3.3125 -8.28125 C 3.675781 -8.53125 4.035156 -8.765625 4.390625 -8.984375 C 4.921875 -9.304688 5.46875 -9.582031 6.03125 -9.8125 C 6.3125 -9.9375 6.59375 -10.023438 6.875 -10.078125 C 7.164062 -10.140625 7.441406 -10.078125 7.703125 -9.890625 C 7.890625 -9.722656 7.96875 -9.539062 7.9375 -9.34375 C 7.914062 -9.144531 7.863281 -8.957031 7.78125 -8.78125 C 7.632812 -8.425781 7.570312 -8.203125 7.59375 -8.109375 C 7.625 -8.015625 7.707031 -7.992188 7.84375 -8.046875 C 7.976562 -8.109375 8.21875 -8.242188 8.5625 -8.453125 C 8.914062 -8.671875 9.289062 -8.90625 9.6875 -9.15625 C 10.195312 -9.476562 10.734375 -9.789062 11.296875 -10.09375 C 11.753906 -10.394531 12.25 -10.578125 12.78125 -10.640625 C 13.507812 -10.691406 13.804688 -10.398438 13.671875 -9.765625 C 13.546875 -9.128906 13.289062 -8.367188 12.90625 -7.484375 C 12.53125 -6.597656 12.488281 -6.054688 12.78125 -5.859375 C 13.082031 -5.660156 13.75 -5.929688 14.78125 -6.671875 C 15.820312 -7.421875 16.410156 -7.84375 16.546875 -7.9375 Z M 16.546875 -7.9375 "/></g></g></g><g fill="#ffffff" fill-opacity="1"><g transform="translate(134.808951, 206.533962)"><g><path d="M 11.484375 -8.0625 C 11.734375 -7.925781 11.753906 -7.582031 11.546875 -7.03125 C 11.242188 -6.632812 10.914062 -6.257812 10.5625 -5.90625 C 10.21875 -5.5625 9.835938 -5.25 9.421875 -4.96875 C 9.390625 -4.96875 9.375 -4.957031 9.375 -4.9375 C 9.101562 -4.75 8.8125 -4.585938 8.5 -4.453125 C 5.976562 -3.546875 4.691406 -4.078125 4.640625 -6.046875 C 3.617188 -5.160156 2.929688 -4.617188 2.578125 -4.421875 C 1.742188 -3.921875 0.84375 -3.695312 -0.125 -3.75 C -0.84375 -3.789062 -1.332031 -4.007812 -1.59375 -4.40625 C -1.851562 -4.800781 -1.828125 -5.335938 -1.515625 -6.015625 C -1.054688 -7.085938 -0.398438 -8.039062 0.453125 -8.875 C 1.460938 -9.800781 2.578125 -10.546875 3.796875 -11.109375 C 4.453125 -11.429688 5.140625 -11.554688 5.859375 -11.484375 C 6.578125 -11.441406 7.007812 -11.035156 7.15625 -10.265625 C 7.21875 -10.035156 7.160156 -9.828125 6.984375 -9.640625 C 6.753906 -9.429688 6.484375 -9.382812 6.171875 -9.5 C 6.148438 -9.5 6.117188 -9.503906 6.078125 -9.515625 C 6.046875 -9.523438 6.019531 -9.539062 6 -9.5625 C 5.695312 -9.988281 5.390625 -10.164062 5.078125 -10.09375 C 4.765625 -10.03125 4.4375 -9.890625 4.09375 -9.671875 C 2.457031 -8.722656 1.242188 -7.398438 0.453125 -5.703125 C 0.410156 -5.628906 0.382812 -5.546875 0.375 -5.453125 C 0.363281 -5.367188 0.390625 -5.300781 0.453125 -5.25 C 0.648438 -5.175781 0.863281 -5.1875 1.09375 -5.28125 C 1.320312 -5.375 1.550781 -5.503906 1.78125 -5.671875 C 2.019531 -5.847656 2.21875 -5.992188 2.375 -6.109375 C 2.394531 -6.140625 2.40625 -6.15625 2.40625 -6.15625 C 3.175781 -6.800781 3.929688 -7.460938 4.671875 -8.140625 C 4.992188 -8.484375 5.398438 -8.679688 5.890625 -8.734375 C 6.585938 -8.734375 6.878906 -8.421875 6.765625 -7.796875 C 6.703125 -7.554688 6.632812 -7.320312 6.5625 -7.09375 C 6.28125 -6.09375 6.265625 -5.503906 6.515625 -5.328125 C 6.773438 -5.148438 7.164062 -5.148438 7.6875 -5.328125 C 8.207031 -5.503906 8.726562 -5.835938 9.25 -6.328125 C 9.78125 -6.816406 10.222656 -7.265625 10.578125 -7.671875 C 10.941406 -8.078125 11.242188 -8.207031 11.484375 -8.0625 Z M 11.484375 -8.0625 "/></g></g></g><g fill="#ffffff" fill-opacity="1"><g transform="translate(150.171568, 206.533962)"><g><path d="M 13.984375 -8.484375 C 14.066406 -8.503906 14.160156 -8.503906 14.265625 -8.484375 C 14.367188 -8.460938 14.453125 -8.414062 14.515625 -8.34375 C 14.578125 -8.226562 14.570312 -8.113281 14.5 -8 C 14.425781 -7.882812 14.320312 -7.796875 14.1875 -7.734375 C 13.238281 -7.265625 12.285156 -6.78125 11.328125 -6.28125 C 10.191406 -5.707031 9.054688 -5.128906 7.921875 -4.546875 C 7.753906 -4.484375 7.585938 -4.40625 7.421875 -4.3125 C 7.171875 -4.175781 6.921875 -4.046875 6.671875 -3.921875 C 6.085938 -3.640625 5.703125 -3.195312 5.515625 -2.59375 C 5.003906 -1.15625 4.46875 0.265625 3.90625 1.671875 C 3.1875 3.566406 2.289062 5.367188 1.21875 7.078125 C 0.613281 8.054688 -0.113281 8.925781 -0.96875 9.6875 C -1.988281 10.65625 -3.160156 11.265625 -4.484375 11.515625 C -6.671875 11.960938 -8.773438 11.820312 -10.796875 11.09375 C -11.628906 10.789062 -12.347656 10.3125 -12.953125 9.65625 C -13.765625 8.78125 -13.800781 7.84375 -13.0625 6.84375 C -12.738281 6.414062 -12.375 6.019531 -11.96875 5.65625 C -11.070312 4.84375 -10.101562 4.113281 -9.0625 3.46875 C -5.3125 1.070312 -1.460938 -1.132812 2.484375 -3.15625 C 2.503906 -3.15625 2.515625 -3.15625 2.515625 -3.15625 C 2.929688 -3.363281 3.335938 -3.582031 3.734375 -3.8125 C 3.796875 -3.863281 3.882812 -3.976562 4 -4.15625 C 4.125 -4.332031 4.210938 -4.503906 4.265625 -4.671875 C 4.328125 -4.847656 4.3125 -4.972656 4.21875 -5.046875 C 4.132812 -5.128906 3.914062 -5.09375 3.5625 -4.9375 C 3.425781 -4.882812 3.300781 -4.828125 3.1875 -4.765625 C 2.875 -4.617188 2.566406 -4.488281 2.265625 -4.375 C 0.460938 -3.9375 -0.4375 -4.632812 -0.4375 -6.46875 C -0.394531 -7.5625 -0.0664062 -8.546875 0.546875 -9.421875 C 1.160156 -10.304688 1.945312 -11 2.90625 -11.5 C 3.875 -12.007812 4.914062 -12.203125 6.03125 -12.078125 C 6.144531 -12.078125 6.265625 -12.0625 6.390625 -12.03125 C 6.691406 -11.988281 7 -11.96875 7.3125 -11.96875 C 7.625 -11.96875 7.941406 -12.039062 8.265625 -12.1875 C 8.617188 -12.320312 8.878906 -12.28125 9.046875 -12.0625 C 9.222656 -11.84375 9.253906 -11.5625 9.140625 -11.21875 C 8.828125 -10.5625 8.523438 -9.894531 8.234375 -9.21875 C 8.023438 -8.800781 7.828125 -8.375 7.640625 -7.9375 C 7.421875 -7.46875 7.210938 -6.992188 7.015625 -6.515625 C 6.734375 -5.878906 6.691406 -5.546875 6.890625 -5.515625 C 7.085938 -5.484375 7.429688 -5.59375 7.921875 -5.84375 C 7.984375 -5.863281 8.050781 -5.882812 8.125 -5.90625 C 9.007812 -6.332031 9.898438 -6.75 10.796875 -7.15625 C 11.429688 -7.445312 12.0625 -7.738281 12.6875 -8.03125 C 13.101562 -8.21875 13.535156 -8.367188 13.984375 -8.484375 Z M 2.71875 0.015625 C 3.050781 -0.910156 3.191406 -1.519531 3.140625 -1.8125 C 3.097656 -2.101562 2.894531 -2.179688 2.53125 -2.046875 C 2.175781 -1.910156 1.707031 -1.65625 1.125 -1.28125 C 0.75 -1.050781 0.34375 -0.820312 -0.09375 -0.59375 C -2.769531 0.851562 -5.375 2.40625 -7.90625 4.0625 C -9.019531 4.707031 -10.015625 5.5 -10.890625 6.4375 C -11.828125 7.425781 -11.796875 8.304688 -10.796875 9.078125 C -10.222656 9.535156 -9.578125 9.859375 -8.859375 10.046875 C -8.148438 10.234375 -7.367188 10.328125 -6.515625 10.328125 C -5.503906 10.398438 -4.570312 10.210938 -3.71875 9.765625 C -2.863281 9.328125 -2.070312 8.664062 -1.34375 7.78125 C -0.914062 7.195312 -0.5 6.59375 -0.09375 5.96875 C 1.0625 4.070312 2 2.085938 2.71875 0.015625 Z M 1.671875 -5.59375 C 1.953125 -5.476562 2.351562 -5.578125 2.875 -5.890625 C 3.394531 -6.203125 3.929688 -6.632812 4.484375 -7.1875 C 5.035156 -7.75 5.46875 -8.316406 5.78125 -8.890625 C 6.101562 -9.472656 6.1875 -9.96875 6.03125 -10.375 C 5.988281 -10.488281 5.921875 -10.59375 5.828125 -10.6875 C 5.660156 -10.882812 5.472656 -10.976562 5.265625 -10.96875 C 5.054688 -10.957031 4.835938 -10.921875 4.609375 -10.859375 C 3.835938 -10.554688 3.15625 -10.03125 2.5625 -9.28125 C 1.96875 -8.539062 1.570312 -7.804688 1.375 -7.078125 C 1.1875 -6.347656 1.285156 -5.851562 1.671875 -5.59375 Z M 1.671875 -5.59375 "/></g></g></g><g fill="#ffffff" fill-opacity="1"><g transform="translate(168.558262, 206.533962)"><g><path d="M 6.296875 -6.671875 C 5.734375 -6.003906 5.066406 -5.390625 4.296875 -4.828125 C 3.523438 -4.265625 2.648438 -3.882812 1.671875 -3.6875 C 0.703125 -3.5 -0.046875 -3.570312 -0.578125 -3.90625 C -1.117188 -4.25 -1.226562 -5 -0.90625 -6.15625 C -0.476562 -7.363281 0.101562 -8.507812 0.84375 -9.59375 C 1.007812 -9.832031 1.25 -10 1.5625 -10.09375 C 1.800781 -10.144531 2.003906 -10.101562 2.171875 -9.96875 C 2.347656 -9.832031 2.414062 -9.664062 2.375 -9.46875 C 2.21875 -9.09375 2.039062 -8.710938 1.84375 -8.328125 C 1.65625 -7.953125 1.53125 -7.707031 1.46875 -7.59375 C 1.101562 -6.914062 0.847656 -6.207031 0.703125 -5.46875 C 0.703125 -5.039062 1.265625 -5.007812 2.390625 -5.375 C 3.523438 -5.75 4.625 -6.429688 5.6875 -7.421875 C 6.75 -8.410156 7.253906 -8.703125 7.203125 -8.296875 C 7.160156 -7.890625 6.859375 -7.347656 6.296875 -6.671875 Z M 3.53125 -11.96875 C 3.476562 -11.925781 3.367188 -11.875 3.203125 -11.8125 C 3.046875 -11.757812 2.875 -11.71875 2.6875 -11.6875 C 2.5 -11.664062 2.351562 -11.695312 2.25 -11.78125 C 2.144531 -11.863281 2.140625 -12.035156 2.234375 -12.296875 C 2.398438 -12.734375 2.578125 -13.117188 2.765625 -13.453125 C 2.953125 -13.785156 3.191406 -14.15625 3.484375 -14.5625 C 3.671875 -14.738281 3.875 -14.832031 4.09375 -14.84375 C 4.320312 -14.863281 4.507812 -14.804688 4.65625 -14.671875 C 4.800781 -14.535156 4.84375 -14.351562 4.78125 -14.125 C 4.550781 -13.289062 4.132812 -12.570312 3.53125 -11.96875 Z M 3.53125 -11.96875 "/></g></g></g><g fill="#ffffff" fill-opacity="1"><g transform="translate(179.598491, 206.533962)"><g><path d="M 7.59375 -9.71875 C 7.5 -8.988281 7.15625 -8.515625 6.5625 -8.296875 C 5.976562 -8.078125 5.785156 -8.367188 5.984375 -9.171875 C 6.191406 -9.972656 5.832031 -10.175781 4.90625 -9.78125 C 3.976562 -9.382812 3.210938 -8.882812 2.609375 -8.28125 C 1.679688 -7.332031 0.859375 -6.304688 0.140625 -5.203125 C 0.0664062 -5.109375 0.0078125 -5.03125 -0.03125 -4.96875 C -0.238281 -4.664062 -0.453125 -4.378906 -0.671875 -4.109375 C -0.804688 -3.910156 -0.960938 -3.785156 -1.140625 -3.734375 C -1.328125 -3.691406 -1.515625 -3.6875 -1.703125 -3.71875 C -1.890625 -3.738281 -2.03125 -3.804688 -2.125 -3.921875 C -2.21875 -4.046875 -2.226562 -4.1875 -2.15625 -4.34375 C -2.039062 -4.625 -1.90625 -4.910156 -1.75 -5.203125 C -0.789062 -6.972656 0.175781 -8.742188 1.15625 -10.515625 C 1.175781 -10.535156 1.1875 -10.554688 1.1875 -10.578125 C 1.320312 -10.847656 1.484375 -11.101562 1.671875 -11.34375 C 1.890625 -11.570312 2.132812 -11.664062 2.40625 -11.625 C 2.675781 -11.582031 2.863281 -11.421875 2.96875 -11.140625 C 3.082031 -10.765625 3.179688 -10.550781 3.265625 -10.5 C 3.347656 -10.457031 3.535156 -10.492188 3.828125 -10.609375 C 4.460938 -10.835938 5.082031 -11 5.6875 -11.09375 C 6.289062 -11.195312 6.785156 -11.175781 7.171875 -11.03125 C 7.554688 -10.882812 7.695312 -10.445312 7.59375 -9.71875 Z M 7.59375 -9.71875 "/></g></g></g><g fill="#ffffff" fill-opacity="1"><g transform="translate(192.380339, 206.533962)"><g><path d="M 6.296875 -6.671875 C 5.734375 -6.003906 5.066406 -5.390625 4.296875 -4.828125 C 3.523438 -4.265625 2.648438 -3.882812 1.671875 -3.6875 C 0.703125 -3.5 -0.046875 -3.570312 -0.578125 -3.90625 C -1.117188 -4.25 -1.226562 -5 -0.90625 -6.15625 C -0.476562 -7.363281 0.101562 -8.507812 0.84375 -9.59375 C 1.007812 -9.832031 1.25 -10 1.5625 -10.09375 C 1.800781 -10.144531 2.003906 -10.101562 2.171875 -9.96875 C 2.347656 -9.832031 2.414062 -9.664062 2.375 -9.46875 C 2.21875 -9.09375 2.039062 -8.710938 1.84375 -8.328125 C 1.65625 -7.953125 1.53125 -7.707031 1.46875 -7.59375 C 1.101562 -6.914062 0.847656 -6.207031 0.703125 -5.46875 C 0.703125 -5.039062 1.265625 -5.007812 2.390625 -5.375 C 3.523438 -5.75 4.625 -6.429688 5.6875 -7.421875 C 6.75 -8.410156 7.253906 -8.703125 7.203125 -8.296875 C 7.160156 -7.890625 6.859375 -7.347656 6.296875 -6.671875 Z M 3.53125 -11.96875 C 3.476562 -11.925781 3.367188 -11.875 3.203125 -11.8125 C 3.046875 -11.757812 2.875 -11.71875 2.6875 -11.6875 C 2.5 -11.664062 2.351562 -11.695312 2.25 -11.78125 C 2.144531 -11.863281 2.140625 -12.035156 2.234375 -12.296875 C 2.398438 -12.734375 2.578125 -13.117188 2.765625 -13.453125 C 2.953125 -13.785156 3.191406 -14.15625 3.484375 -14.5625 C 3.671875 -14.738281 3.875 -14.832031 4.09375 -14.84375 C 4.320312 -14.863281 4.507812 -14.804688 4.65625 -14.671875 C 4.800781 -14.535156 4.84375 -14.351562 4.78125 -14.125 C 4.550781 -13.289062 4.132812 -12.570312 3.53125 -11.96875 Z M 3.53125 -11.96875 "/></g></g></g><g fill="#ffffff" fill-opacity="1"><g transform="translate(203.420568, 206.533962)"><g/></g></g><g fill="#ffffff" fill-opacity="1"><g transform="translate(220.255638, 206.533962)"><g><path d="M 59.0625 -24.65625 C 58.945312 -24.632812 58.816406 -24.632812 58.671875 -24.65625 C 58.535156 -24.675781 58.410156 -24.734375 58.296875 -24.828125 C 58.160156 -24.972656 58.101562 -25.101562 58.125 -25.21875 C 58.144531 -25.332031 58.191406 -25.4375 58.265625 -25.53125 C 59.378906 -27.3125 60.34375 -29.179688 61.15625 -31.140625 C 61.664062 -32.335938 62.117188 -33.578125 62.515625 -34.859375 C 62.765625 -35.648438 62.785156 -36.5 62.578125 -37.40625 C 62.378906 -38.382812 61.800781 -39.070312 60.84375 -39.46875 C 60.101562 -39.738281 59.347656 -39.882812 58.578125 -39.90625 C 58.429688 -39.90625 58.289062 -39.90625 58.15625 -39.90625 C 56.53125 -39.84375 54.953125 -39.613281 53.421875 -39.21875 C 50.773438 -38.570312 48.210938 -37.769531 45.734375 -36.8125 C 43.253906 -35.863281 40.832031 -34.820312 38.46875 -33.6875 C 28.09375 -28.644531 18.800781 -22.269531 10.59375 -14.5625 C 8.519531 -12.695312 6.707031 -10.613281 5.15625 -8.3125 C 4.625 -7.5 4.148438 -6.640625 3.734375 -5.734375 C 3.503906 -5.222656 3.34375 -4.679688 3.25 -4.109375 C 2.894531 -2.222656 3.707031 -0.816406 5.6875 0.109375 C 7.351562 0.878906 9.046875 1.3125 10.765625 1.40625 C 12.117188 1.519531 13.4375 1.578125 14.71875 1.578125 C 15.3125 1.578125 15.890625 1.550781 16.453125 1.5 C 24.585938 1.414062 32.265625 0.363281 39.484375 -1.65625 C 39.597656 -1.695312 39.710938 -1.734375 39.828125 -1.765625 C 40.316406 -1.929688 40.832031 -2.0625 41.375 -2.15625 C 41.507812 -2.175781 41.738281 -2.195312 42.0625 -2.21875 C 42.382812 -2.238281 42.6875 -2.21875 42.96875 -2.15625 C 43.257812 -2.101562 43.445312 -1.972656 43.53125 -1.765625 C 43.550781 -1.640625 43.53125 -1.546875 43.46875 -1.484375 C 43.40625 -1.429688 43.316406 -1.394531 43.203125 -1.375 C 42.765625 -1.257812 42.328125 -1.144531 41.890625 -1.03125 C 40.578125 -0.675781 39.273438 -0.335938 37.984375 -0.015625 C 30.660156 1.859375 23.0625 2.769531 15.1875 2.71875 C 13.5625 2.71875 11.9375 2.6875 10.3125 2.625 C 8.488281 2.550781 6.65625 2.164062 4.8125 1.46875 C 1.15625 0.0507812 -0.117188 -2.28125 0.984375 -5.53125 C 1.421875 -6.820312 2.046875 -8.019531 2.859375 -9.125 C 3.992188 -10.75 5.242188 -12.257812 6.609375 -13.65625 C 7.984375 -15.050781 9.414062 -16.394531 10.90625 -17.6875 C 17.550781 -23.539062 24.859375 -28.566406 32.828125 -32.765625 C 35.273438 -34.046875 37.757812 -35.238281 40.28125 -36.34375 C 42.8125 -37.445312 45.425781 -38.421875 48.125 -39.265625 C 50.375 -39.984375 52.695312 -40.523438 55.09375 -40.890625 C 56.050781 -41.023438 57.003906 -41.09375 57.953125 -41.09375 C 58.578125 -41.09375 59.207031 -41.070312 59.84375 -41.03125 C 60.582031 -40.957031 61.320312 -40.804688 62.0625 -40.578125 C 64.0625 -39.859375 65.082031 -38.535156 65.125 -36.609375 C 65.125 -35.742188 65.007812 -34.914062 64.78125 -34.125 C 64.289062 -32.59375 63.691406 -31.117188 62.984375 -29.703125 C 62.273438 -28.296875 61.515625 -26.914062 60.703125 -25.5625 C 60.472656 -25.09375 60.097656 -24.789062 59.578125 -24.65625 C 59.421875 -24.632812 59.273438 -24.632812 59.140625 -24.65625 Z M 59.0625 -24.65625 "/></g></g></g><g fill="#ffffff" fill-opacity="1"><g transform="translate(270.228986, 206.533962)"><g><path d="M 7.59375 -9.71875 C 7.5 -8.988281 7.15625 -8.515625 6.5625 -8.296875 C 5.976562 -8.078125 5.785156 -8.367188 5.984375 -9.171875 C 6.191406 -9.972656 5.832031 -10.175781 4.90625 -9.78125 C 3.976562 -9.382812 3.210938 -8.882812 2.609375 -8.28125 C 1.679688 -7.332031 0.859375 -6.304688 0.140625 -5.203125 C 0.0664062 -5.109375 0.0078125 -5.03125 -0.03125 -4.96875 C -0.238281 -4.664062 -0.453125 -4.378906 -0.671875 -4.109375 C -0.804688 -3.910156 -0.960938 -3.785156 -1.140625 -3.734375 C -1.328125 -3.691406 -1.515625 -3.6875 -1.703125 -3.71875 C -1.890625 -3.738281 -2.03125 -3.804688 -2.125 -3.921875 C -2.21875 -4.046875 -2.226562 -4.1875 -2.15625 -4.34375 C -2.039062 -4.625 -1.90625 -4.910156 -1.75 -5.203125 C -0.789062 -6.972656 0.175781 -8.742188 1.15625 -10.515625 C 1.175781 -10.535156 1.1875 -10.554688 1.1875 -10.578125 C 1.320312 -10.847656 1.484375 -11.101562 1.671875 -11.34375 C 1.890625 -11.570312 2.132812 -11.664062 2.40625 -11.625 C 2.675781 -11.582031 2.863281 -11.421875 2.96875 -11.140625 C 3.082031 -10.765625 3.179688 -10.550781 3.265625 -10.5 C 3.347656 -10.457031 3.535156 -10.492188 3.828125 -10.609375 C 4.460938 -10.835938 5.082031 -11 5.6875 -11.09375 C 6.289062 -11.195312 6.785156 -11.175781 7.171875 -11.03125 C 7.554688 -10.882812 7.695312 -10.445312 7.59375 -9.71875 Z M 7.59375 -9.71875 "/></g></g></g><g fill="#ffffff" fill-opacity="1"><g transform="translate(283.010845, 206.533962)"><g><path d="M 9.03125 -6.078125 C 8.414062 -5.472656 7.703125 -4.957031 6.890625 -4.53125 C 6.078125 -4.101562 5.394531 -3.820312 4.84375 -3.6875 C 4.289062 -3.5625 3.726562 -3.488281 3.15625 -3.46875 C 2.226562 -3.425781 1.375 -3.550781 0.59375 -3.84375 C -0.6875 -4.363281 -1.132812 -5.351562 -0.75 -6.8125 C -0.375 -8.070312 0.375 -9.050781 1.5 -9.75 C 2.632812 -10.457031 3.800781 -10.800781 5 -10.78125 C 5 -10.78125 5.007812 -10.78125 5.03125 -10.78125 C 5.34375 -10.800781 5.632812 -10.78125 5.90625 -10.71875 C 6.375 -10.550781 6.671875 -10.273438 6.796875 -9.890625 C 6.921875 -9.515625 6.835938 -9.09375 6.546875 -8.625 C 5.867188 -7.601562 4.945312 -7.035156 3.78125 -6.921875 C 3.007812 -6.847656 2.265625 -6.882812 1.546875 -7.03125 C 1.410156 -7.050781 1.289062 -7.015625 1.1875 -6.921875 C 1.082031 -6.828125 1.019531 -6.710938 1 -6.578125 C 0.789062 -5.660156 1.070312 -5.078125 1.84375 -4.828125 C 2.789062 -4.503906 3.773438 -4.503906 4.796875 -4.828125 C 5.984375 -5.203125 7.109375 -5.898438 8.171875 -6.921875 C 9.234375 -7.941406 9.847656 -8.414062 10.015625 -8.34375 C 10.179688 -8.28125 10.234375 -8.085938 10.171875 -7.765625 C 10.023438 -7.242188 9.644531 -6.679688 9.03125 -6.078125 Z M 2.28125 -8.625 C 2.21875 -8.550781 2.171875 -8.46875 2.140625 -8.375 C 2.117188 -8.289062 2.15625 -8.210938 2.25 -8.140625 C 2.613281 -7.929688 3.015625 -7.851562 3.453125 -7.90625 C 3.890625 -7.96875 4.253906 -8.132812 4.546875 -8.40625 C 4.847656 -8.675781 4.976562 -9.003906 4.9375 -9.390625 C 4.90625 -9.523438 4.832031 -9.609375 4.71875 -9.640625 C 4.601562 -9.679688 4.488281 -9.691406 4.375 -9.671875 C 3.59375 -9.535156 2.894531 -9.1875 2.28125 -8.625 Z M 2.28125 -8.625 "/></g></g></g><g fill="#ffffff" fill-opacity="1"><g transform="translate(297.090991, 206.533962)"><g><path d="M 11.484375 -8.0625 C 11.734375 -7.925781 11.753906 -7.582031 11.546875 -7.03125 C 11.242188 -6.632812 10.914062 -6.257812 10.5625 -5.90625 C 10.21875 -5.5625 9.835938 -5.25 9.421875 -4.96875 C 9.390625 -4.96875 9.375 -4.957031 9.375 -4.9375 C 9.101562 -4.75 8.8125 -4.585938 8.5 -4.453125 C 5.976562 -3.546875 4.691406 -4.078125 4.640625 -6.046875 C 3.617188 -5.160156 2.929688 -4.617188 2.578125 -4.421875 C 1.742188 -3.921875 0.84375 -3.695312 -0.125 -3.75 C -0.84375 -3.789062 -1.332031 -4.007812 -1.59375 -4.40625 C -1.851562 -4.800781 -1.828125 -5.335938 -1.515625 -6.015625 C -1.054688 -7.085938 -0.398438 -8.039062 0.453125 -8.875 C 1.460938 -9.800781 2.578125 -10.546875 3.796875 -11.109375 C 4.453125 -11.429688 5.140625 -11.554688 5.859375 -11.484375 C 6.578125 -11.441406 7.007812 -11.035156 7.15625 -10.265625 C 7.21875 -10.035156 7.160156 -9.828125 6.984375 -9.640625 C 6.753906 -9.429688 6.484375 -9.382812 6.171875 -9.5 C 6.148438 -9.5 6.117188 -9.503906 6.078125 -9.515625 C 6.046875 -9.523438 6.019531 -9.539062 6 -9.5625 C 5.695312 -9.988281 5.390625 -10.164062 5.078125 -10.09375 C 4.765625 -10.03125 4.4375 -9.890625 4.09375 -9.671875 C 2.457031 -8.722656 1.242188 -7.398438 0.453125 -5.703125 C 0.410156 -5.628906 0.382812 -5.546875 0.375 -5.453125 C 0.363281 -5.367188 0.390625 -5.300781 0.453125 -5.25 C 0.648438 -5.175781 0.863281 -5.1875 1.09375 -5.28125 C 1.320312 -5.375 1.550781 -5.503906 1.78125 -5.671875 C 2.019531 -5.847656 2.21875 -5.992188 2.375 -6.109375 C 2.394531 -6.140625 2.40625 -6.15625 2.40625 -6.15625 C 3.175781 -6.800781 3.929688 -7.460938 4.671875 -8.140625 C 4.992188 -8.484375 5.398438 -8.679688 5.890625 -8.734375 C 6.585938 -8.734375 6.878906 -8.421875 6.765625 -7.796875 C 6.703125 -7.554688 6.632812 -7.320312 6.5625 -7.09375 C 6.28125 -6.09375 6.265625 -5.503906 6.515625 -5.328125 C 6.773438 -5.148438 7.164062 -5.148438 7.6875 -5.328125 C 8.207031 -5.503906 8.726562 -5.835938 9.25 -6.328125 C 9.78125 -6.816406 10.222656 -7.265625 10.578125 -7.671875 C 10.941406 -8.078125 11.242188 -8.207031 11.484375 -8.0625 Z M 11.484375 -8.0625 "/></g></g></g><g fill="#ffffff" fill-opacity="1"><g transform="translate(312.453607, 206.533962)"><g><path d="M 9.90625 -7.65625 C 8.488281 -5.976562 7.097656 -4.742188 5.734375 -3.953125 C 4.378906 -3.160156 2.925781 -2.898438 1.375 -3.171875 C -0.164062 -3.441406 -0.796875 -4.476562 -0.515625 -6.28125 C -0.328125 -7.195312 -0.0703125 -8.085938 0.25 -8.953125 C 1.0625 -10.960938 1.882812 -12.96875 2.71875 -14.96875 C 3 -15.6875 3.289062 -16.410156 3.59375 -17.140625 C 3.664062 -17.296875 3.734375 -17.453125 3.796875 -17.609375 C 3.910156 -17.878906 4.03125 -18.148438 4.15625 -18.421875 C 4.320312 -18.890625 4.132812 -19.132812 3.59375 -19.15625 C 3.289062 -19.15625 2.988281 -19.15625 2.6875 -19.15625 C 2.550781 -19.15625 2.398438 -19.15625 2.234375 -19.15625 C 2.078125 -19.132812 1.914062 -19.109375 1.75 -19.078125 C 1.46875 -19.054688 1.191406 -19.046875 0.921875 -19.046875 C 0.648438 -19.046875 0.398438 -19.117188 0.171875 -19.265625 C 0.109375 -19.285156 0.0546875 -19.320312 0.015625 -19.375 C -0.015625 -19.4375 -0.03125 -19.503906 -0.03125 -19.578125 C -0.0078125 -19.617188 0.0195312 -19.664062 0.0625 -19.71875 C 0.113281 -19.78125 0.175781 -19.820312 0.25 -19.84375 C 0.488281 -19.9375 0.734375 -20.003906 0.984375 -20.046875 C 1.640625 -20.078125 2.289062 -20.101562 2.9375 -20.125 C 3.1875 -20.125 3.40625 -20.125 3.59375 -20.125 C 4.019531 -20.125 4.332031 -20.140625 4.53125 -20.171875 C 4.738281 -20.203125 4.90625 -20.3125 5.03125 -20.5 C 5.164062 -20.695312 5.316406 -20.988281 5.484375 -21.375 C 5.578125 -21.59375 5.691406 -21.828125 5.828125 -22.078125 C 6.171875 -22.816406 6.519531 -23.570312 6.875 -24.34375 C 7.03125 -24.6875 7.191406 -25.023438 7.359375 -25.359375 C 7.503906 -25.679688 7.722656 -25.9375 8.015625 -26.125 C 8.296875 -26.257812 8.546875 -26.25 8.765625 -26.09375 C 8.828125 -26.039062 8.875 -25.96875 8.90625 -25.875 C 8.945312 -25.78125 8.96875 -25.695312 8.96875 -25.625 C 8.96875 -25.21875 8.859375 -24.8125 8.640625 -24.40625 C 8.597656 -24.320312 8.550781 -24.222656 8.5 -24.109375 C 8.363281 -23.722656 8.21875 -23.335938 8.0625 -22.953125 C 7.757812 -22.234375 7.46875 -21.5 7.1875 -20.75 C 7.113281 -20.613281 7.109375 -20.488281 7.171875 -20.375 C 7.242188 -20.269531 7.347656 -20.21875 7.484375 -20.21875 C 8.234375 -20.195312 8.96875 -20.1875 9.6875 -20.1875 C 10.0625 -20.1875 10.429688 -20.1875 10.796875 -20.1875 C 11.960938 -20.164062 12.429688 -20.003906 12.203125 -19.703125 C 12.035156 -19.523438 11.859375 -19.421875 11.671875 -19.390625 C 11.492188 -19.367188 11.3125 -19.375 11.125 -19.40625 C 11 -19.40625 10.878906 -19.40625 10.765625 -19.40625 C 9.585938 -19.332031 8.414062 -19.285156 7.25 -19.265625 C 6.71875 -19.265625 6.359375 -19.019531 6.171875 -18.53125 C 5.984375 -18.0625 5.800781 -17.597656 5.625 -17.140625 C 5.363281 -16.523438 5.113281 -15.925781 4.875 -15.34375 C 4.644531 -14.800781 4.414062 -14.25 4.1875 -13.6875 C 3.582031 -12.269531 3 -10.847656 2.4375 -9.421875 C 2.09375 -8.492188 1.816406 -7.546875 1.609375 -6.578125 C 1.171875 -4.804688 1.851562 -4.128906 3.65625 -4.546875 C 5.425781 -4.960938 7.285156 -6.238281 9.234375 -8.375 C 10.078125 -8.914062 10.300781 -8.675781 9.90625 -7.65625 Z M 9.90625 -7.65625 "/></g></g></g><g fill="#ffffff" fill-opacity="1"><g transform="translate(326.312104, 206.533962)"><g><path d="M 6.296875 -6.671875 C 5.734375 -6.003906 5.066406 -5.390625 4.296875 -4.828125 C 3.523438 -4.265625 2.648438 -3.882812 1.671875 -3.6875 C 0.703125 -3.5 -0.046875 -3.570312 -0.578125 -3.90625 C -1.117188 -4.25 -1.226562 -5 -0.90625 -6.15625 C -0.476562 -7.363281 0.101562 -8.507812 0.84375 -9.59375 C 1.007812 -9.832031 1.25 -10 1.5625 -10.09375 C 1.800781 -10.144531 2.003906 -10.101562 2.171875 -9.96875 C 2.347656 -9.832031 2.414062 -9.664062 2.375 -9.46875 C 2.21875 -9.09375 2.039062 -8.710938 1.84375 -8.328125 C 1.65625 -7.953125 1.53125 -7.707031 1.46875 -7.59375 C 1.101562 -6.914062 0.847656 -6.207031 0.703125 -5.46875 C 0.703125 -5.039062 1.265625 -5.007812 2.390625 -5.375 C 3.523438 -5.75 4.625 -6.429688 5.6875 -7.421875 C 6.75 -8.410156 7.253906 -8.703125 7.203125 -8.296875 C 7.160156 -7.890625 6.859375 -7.347656 6.296875 -6.671875 Z M 3.53125 -11.96875 C 3.476562 -11.925781 3.367188 -11.875 3.203125 -11.8125 C 3.046875 -11.757812 2.875 -11.71875 2.6875 -11.6875 C 2.5 -11.664062 2.351562 -11.695312 2.25 -11.78125 C 2.144531 -11.863281 2.140625 -12.035156 2.234375 -12.296875 C 2.398438 -12.734375 2.578125 -13.117188 2.765625 -13.453125 C 2.953125 -13.785156 3.191406 -14.15625 3.484375 -14.5625 C 3.671875 -14.738281 3.875 -14.832031 4.09375 -14.84375 C 4.320312 -14.863281 4.507812 -14.804688 4.65625 -14.671875 C 4.800781 -14.535156 4.84375 -14.351562 4.78125 -14.125 C 4.550781 -13.289062 4.132812 -12.570312 3.53125 -11.96875 Z M 3.53125 -11.96875 "/></g></g></g><g fill="#ffffff" fill-opacity="1"><g transform="translate(337.352333, 206.533962)"><g><path d="M 2.515625 -3.75 L 2.46875 -3.75 C 0.9375 -3.769531 -0.0664062 -4.109375 -0.546875 -4.765625 C -1.035156 -5.429688 -1.015625 -6.3125 -0.484375 -7.40625 C -0.046875 -8.238281 0.507812 -8.96875 1.1875 -9.59375 C 1.414062 -9.8125 1.648438 -9.984375 1.890625 -10.109375 C 2.140625 -10.234375 2.414062 -10.296875 2.71875 -10.296875 C 2.90625 -10.328125 3.113281 -10.296875 3.34375 -10.203125 C 3.414062 -10.179688 3.488281 -10.15625 3.5625 -10.125 C 3.738281 -10.15625 3.914062 -10.210938 4.09375 -10.296875 C 4.132812 -10.328125 4.191406 -10.351562 4.265625 -10.375 C 4.609375 -10.507812 4.976562 -10.566406 5.375 -10.546875 C 5.53125 -10.546875 5.691406 -10.546875 5.859375 -10.546875 C 6.484375 -10.453125 6.953125 -10.191406 7.265625 -9.765625 C 7.585938 -9.335938 7.703125 -8.816406 7.609375 -8.203125 C 7.546875 -7.835938 7.425781 -7.488281 7.25 -7.15625 C 6.039062 -4.976562 4.492188 -3.84375 2.609375 -3.75 Z M 5.015625 -9.421875 C 4.179688 -9.453125 3.441406 -9.210938 2.796875 -8.703125 C 2.148438 -8.191406 1.664062 -7.601562 1.34375 -6.9375 C 1.03125 -6.269531 0.941406 -5.722656 1.078125 -5.296875 C 1.222656 -4.867188 1.664062 -4.75 2.40625 -4.9375 C 3.238281 -5.195312 3.972656 -5.671875 4.609375 -6.359375 C 5.253906 -7.054688 5.644531 -7.71875 5.78125 -8.34375 C 5.925781 -8.976562 5.671875 -9.335938 5.015625 -9.421875 Z M 5.015625 -9.421875 "/></g></g></g><g fill="#ffffff" fill-opacity="1"><g transform="translate(350.625006, 206.533962)"><g><path d="M 12.546875 -7.90625 C 12.710938 -7.695312 12.5 -7.3125 11.90625 -6.75 C 11.320312 -6.1875 10.695312 -5.710938 10.03125 -5.328125 C 9.363281 -4.953125 8.59375 -4.578125 7.71875 -4.203125 C 7.132812 -3.941406 6.515625 -3.851562 5.859375 -3.9375 C 5.203125 -4.03125 4.875 -4.425781 4.875 -5.125 C 4.875 -5.832031 5.039062 -6.535156 5.375 -7.234375 C 5.695312 -7.953125 5.765625 -8.320312 5.578125 -8.34375 C 5.398438 -8.363281 5.019531 -8.191406 4.4375 -7.828125 C 2.925781 -6.828125 1.519531 -5.691406 0.21875 -4.421875 C -0.125 -3.992188 -0.566406 -3.757812 -1.109375 -3.71875 C -1.378906 -3.71875 -1.59375 -3.804688 -1.75 -3.984375 C -1.90625 -4.160156 -1.925781 -4.347656 -1.8125 -4.546875 C -0.875 -6.265625 0.0664062 -7.960938 1.015625 -9.640625 C 1.222656 -9.992188 1.539062 -10.210938 1.96875 -10.296875 C 2.144531 -10.328125 2.304688 -10.269531 2.453125 -10.125 C 2.609375 -9.988281 2.6875 -9.828125 2.6875 -9.640625 C 2.664062 -9.472656 2.597656 -9.273438 2.484375 -9.046875 C 2.429688 -8.910156 2.378906 -8.773438 2.328125 -8.640625 C 2.285156 -8.515625 2.269531 -8.410156 2.28125 -8.328125 C 2.300781 -8.242188 2.367188 -8.21875 2.484375 -8.25 C 2.640625 -8.332031 2.800781 -8.421875 2.96875 -8.515625 C 3.363281 -8.753906 3.75 -8.976562 4.125 -9.1875 C 4.445312 -9.375 4.785156 -9.539062 5.140625 -9.6875 C 5.503906 -9.84375 5.878906 -9.945312 6.265625 -10 C 6.898438 -10.039062 7.347656 -9.894531 7.609375 -9.5625 C 7.878906 -9.238281 7.914062 -8.785156 7.71875 -8.203125 C 7.5 -7.671875 7.273438 -7.148438 7.046875 -6.640625 C 6.765625 -6.148438 6.71875 -5.773438 6.90625 -5.515625 C 7.09375 -5.265625 7.972656 -5.5625 9.546875 -6.40625 L 10.734375 -7.09375 C 11.859375 -7.8125 12.460938 -8.082031 12.546875 -7.90625 Z M 12.546875 -7.90625 "/></g></g></g></svg>